<?xml version="1.0" standalone="no"?>
<!DOCTYPE svg PUBLIC "-//W3C//DTD SVG 20010904//EN"
 "http://www.w3.org/TR/2001/REC-SVG-20010904/DTD/svg10.dtd">
<svg version="1.0" xmlns="http://www.w3.org/2000/svg"
 width="260.000000pt" height="260.000000pt" viewBox="0 0 260.000000 260.000000"
 preserveAspectRatio="xMidYMid meet">
<metadata>
Created by potrace 1.14, written by Peter Selinger 2001-2017
</metadata>
<g transform="translate(0.000000,260.000000) scale(0.100000,-0.100000)"
fill="#000000" stroke="none">
<path d="M1147 2523 c-2 -1 -21 -5 -43 -8 -93 -15 -251 -64 -324 -102 -14 -7
-30 -13 -37 -13 -6 0 -13 -3 -15 -7 -2 -5 -24 -19 -50 -33 -27 -13 -48 -28
-48 -32 0 -5 -5 -8 -10 -8 -18 0 -99 -63 -179 -140 -184 -177 -317 -434 -358
-695 -10 -63 -10 -315 0 -375 23 -133 77 -289 143 -408 153 -279 434 -500 744
-585 133 -37 147 -39 310 -42 163 -3 306 19 442 70 101 38 275 131 308 165 3
3 22 17 42 33 51 37 148 136 148 149 0 6 3 8 6 5 10 -10 113 138 159 228 45
86 92 199 99 237 2 13 9 41 14 63 6 22 14 56 17 75 11 59 15 312 5 360 -4 25
-11 61 -14 80 -18 112 -115 360 -150 382 -6 4 -8 8 -3 8 6 0 -48 81 -104 153
-55 71 -165 170 -259 234 -210 143 -443 212 -707 210 -74 0 -135 -2 -136 -4z"/>
</g>
</svg>
